<?xml version="1.0" encoding="UTF-8"?>
<svg id="Layer_1" xmlns="http://www.w3.org/2000/svg" version="1.1" viewBox="0 0 433.02 107.87">
  <!-- Generator: Adobe Illustrator 29.7.0, SVG Export Plug-In . SVG Version: 2.1.1 Build 60)  -->
  <defs>
    <style>
      .st0 {
        fill-rule: evenodd;
      }
    </style>
  </defs>
  <g>
    <path d="M394.97,62.04c1.52-2.43,1.72-4.8-.33-7.91-.53-.8-15.15-22.99-15.5-23.53-1.36-2.07-1.19-3.98-.15-5.49,1.23-1.79,3.51-5.14,3.51-5.14,0,0,18.51,28.15,19.28,29.3,2.3,3.46,2.36,6.09.38,8.98-1.44,2.11-12.83,18.75-13.81,20.18h-4.62s10.37-15.04,11.22-16.4"/>
    <path d="M371.9,84.97h33.76c3.64,0,5.49-1.44,7.03-3.71,1.48-2.17,7.19-10.5,7.96-11.64,2.5-3.66,6.55-3.8,6.55-3.8l-4-6.08h-8.92c-2.15,0-3.49.76-4.94,2.87-.31.46-6.91,10.1-7.52,11-.52.76-1.09,1.04-1.75,1.05-.2,0-1.73,0-1.73,0,0,0,11.4-16.67,12.57-18.38,2.71-3.96,3.59-7.63.73-11.97-1.06-1.61-22.48-34.13-22.48-34.13,0,0-2.46,3.63-3.4,5.02-1.03,1.51-1.36,3.46.03,5.56.39.59,17.61,26.75,18.41,27.97,2.29,3.48,2.68,6.69.31,10.17-1.4,2.05-13.39,19.57-13.39,19.57h8.53c2.93,0,4.55-1.59,5.07-2.36.58-.85,6.68-9.75,6.76-9.86.67-.99,1.74-2.69,4.31-2.69h7.17l-1.2.43s-2.46.89-3.73,2.74c-.38.55-1.76,2.56-3.21,4.7-1.93,2.83-4.12,6.03-4.54,6.63-.82,1.17-2.61,3.14-5.49,3.14h-25.68s12.88-18.87,13.81-20.21c1.2-1.72.97-3.76.06-5.15-.47-.71-17.15-26.03-17.15-26.03,0,0-2.75,4.02-3.5,5.15-.81,1.21-1.45,2.74.1,5.41.11.17,12.03,18.2,12.51,18.98,1.4,2.31,1.75,4.07.15,6.4-.87,1.26-13.17,19.25-13.17,19.25"/>
  </g>
  <g>
    <path class="st0" d="M178.42,36.37c0-7.23,5.01-10.61,11.76-10.61s9.07,1.16,13.4,5.69v-8.97c-4.92,0-9.83-.58-14.85-.58-10.22,0-19.38,5.5-19.38,16.68,0,17.84,27.58,15.81,27.58,32.01,0,7.71-5.5,12.05-12.82,12.05-10.13,0-14.27-5.69-17.16-9.74v10.22c4.44,1.83,11.86,3.38,16.59,3.38,10.8,0,22.47-6.75,22.47-18.71,0-18.42-27.58-16.59-27.58-31.44Z"/>
    <path class="st0" d="M256.31,32.83h-11.12c1.8,3.27,1.88,7.03,1.88,10.71v11.69h-24.19v-11.69c0-3.68.08-7.44,1.88-10.71h-11.12c1.8,3.27,1.88,7.03,1.88,10.71v30.73c0,3.68-.08,7.44-1.88,10.71h11.12c-1.8-3.27-1.88-7.03-1.88-10.71v-15.78h24.19v15.78c0,3.68-.08,7.44-1.88,10.71h11.12c-1.8-3.27-1.88-7.03-1.88-10.71v-30.73c0-3.68.08-7.44,1.88-10.71Z"/>
    <path class="st0" d="M290.55,31.52c-17,0-25.99,12.91-25.99,28.44,0,14.55,7.52,26.32,24.68,26.32s25.99-12.92,25.99-28.44c0-14.55-7.52-26.32-24.68-26.32ZM289.9,82.68c-13.16,0-16.84-14.22-16.84-25.01,0-11.77,5.07-22.56,16.84-22.56,13.16,0,16.84,14.22,16.84,25.01,0,11.77-5.07,22.56-16.84,22.56Z"/>
    <path class="st0" d="M342.44,32.01c-6.38,0-12.67.82-19.21.82,1.8,2.78,1.8,7.03,1.8,10.71v30.73c0,3.27.08,7.85-1.8,10.71h11.28c-1.88-2.86-2.12-7.44-2.12-10.71v-38.99h6.54c8.34,0,10.22,4.9,10.22,11.28,0,11.85-7.85,12.92-14.14,13.73,1.55.98,2.78,1.8,7.11,1.8,9.72,0,15.53-6.95,15.53-16.35,0-8.01-4.82-13.73-15.2-13.73Z"/>
    <path class="st0" d="M93.96,77.37l-14.22-19.61c5.88-2.37,12.1-7.27,12.1-14.8,0-6.37-4.33-10.95-12.67-10.95-6.38,0-12.91.82-19.78.82,1.8,2.78,1.8,7.03,1.8,10.71v30.24c0,3.51.16,7.44-2.21,11.2h11.36c-1.8-2.78-1.8-7.03-1.8-10.71v-14.71c4.74.41,5.31,1.8,8.74,6.7l9.97,14.22c1.8,2.61,3.35,4.49,6.86,4.49h6.7c-3.35-3.11-4.5-4.41-6.86-7.6ZM72.22,56.61c-1.23,0-2.45-.08-3.68-.25v-17.16c0-1.31.08-2.7.16-3.92h3.84c7.27.16,11.93,1.15,11.93,9.32s-4.33,12.02-12.26,12.02Z"/>
    <path class="st0" d="M118.31,32.83h-10.95c1.8,2.78,1.8,7.03,1.8,10.71v30.73c0,3.68,0,7.93-1.8,10.71h10.95c-1.8-2.78-1.8-7.03-1.8-10.71v-30.73c0-3.68,0-7.93,1.8-10.71Z"/>
    <path class="st0" d="M138.09,43.78c0-6.13,4.25-8.99,9.97-8.99s7.68.98,11.36,4.82v-7.6c-4.17,0-8.34-.49-12.59-.49-8.66,0-16.43,4.66-16.43,14.14,0,15.12,23.38,13.4,23.38,27.14,0,6.54-4.66,10.22-10.87,10.22-8.58,0-12.1-4.82-14.55-8.26v8.66c3.76,1.55,10.05,2.86,14.06,2.86,9.15,0,19.04-5.72,19.04-15.86,0-15.61-23.37-14.06-23.37-26.64Z"/>
    <path class="st0" d="M53.88,23.05h-12.03c.1.39.1,1.07.1,1.84,0,2.33-3.4,6.31-8.64,12.42-4.85,5.73-10.68,12.71-15.24,13.59v-15.14c0-4.37,0-9.41,2.13-12.71H7.2c2.13,3.3,2.13,8.35,2.13,12.71v36.5c0,4.37,0,9.41-2.13,12.71h13.01c-2.13-3.3-2.13-8.35-2.13-12.71v-16.99c0-.38,0-.87.39-.87s1.07.87,1.46,1.55l17.47,26.4c1.07,1.55,1.94,2.62,3.69,2.62h10.19c-2.91-3.39-6.21-7.28-8.83-11.06l-16.11-23,15.04-16.3c4.27-4.66,7.96-7.57,12.52-11.55Z"/>
  </g>
</svg>
